<?xml version="1.0" encoding="UTF-8"?>
<!DOCTYPE svg PUBLIC "-//W3C//DTD SVG 1.1//EN" "http://www.w3.org/Graphics/SVG/1.1/DTD/svg11.dtd">
<svg version="1.1" xmlns="http://www.w3.org/2000/svg" xmlns:xlink="http://www.w3.org/1999/xlink" x="0" y="0" width="16" height="16" viewBox="0, 0, 16, 16">
  <g id="Background">
    <rect x="0" y="0" width="16" height="16" fill="#000000" fill-opacity="0"/>
  </g>
  <g id="Layer_1">
    <g>
      <path d="M1.982,5.073 L3.007,15.339 C3.007,15.705 3.314,16 3.691,16 L11.271,16 C11.648,16 11.955,15.705 11.955,15.339 L12.98,5.073 L1.982,5.073 L1.982,5.073 z M8.033,14.068 L6.961,14.068 L6.961,6.989 L8.033,6.989 L8.033,14.068 L8.033,14.068 z M10.033,14.068 L8.961,14.068 L9.961,6.989 L11.033,6.989 L10.033,14.068 L10.033,14.068 z M6.033,14.068 L4.961,14.068 L3.961,6.989 L5.033,6.989 L6.033,14.068 L6.033,14.068 z" fill="#C42929"/>
      <path d="M13.075,2.105 L9.937,2.105 L9.937,0.709 C9.937,0.317 9.481,0 9.081,0 L5.986,0 C5.586,0 5.031,0.225 5.031,0.615 L5.031,2.011 L1.886,2.105 C1.485,2.105 1.159,2.421 1.159,2.813 L1.159,3.968 L13.8,3.968 L13.8,2.813 C13.801,2.422 13.477,2.105 13.075,2.105 L13.075,2.105 z M5.947,1.44 C5.947,1.128 6.298,0.875 6.73,0.875 L8.294,0.875 C8.726,0.875 9.076,1.129 9.076,1.44 L9.076,2.105 L5.946,2.105 L5.946,1.44 L5.947,1.44 z" fill="#C42929"/>
    </g>
  </g>
</svg>
