<?xml version="1.0" encoding="UTF-8"?>
<!DOCTYPE svg PUBLIC "-//W3C//DTD SVG 1.1//EN" "http://www.w3.org/Graphics/SVG/1.1/DTD/svg11.dtd">
<svg version="1.1" xmlns="http://www.w3.org/2000/svg" xmlns:xlink="http://www.w3.org/1999/xlink" x="0" y="0" width="17" height="16" viewBox="0, 0, 17, 16">
  <g id="Background">
    <rect x="0" y="0" width="17" height="16" fill="#000000" fill-opacity="0"/>
  </g>
  <g id="Layer_1">
    <path d="M14.667,0.037 L3.332,0.037 C2.605,0.037 2.016,0.63 2.016,1.36 L2.026,15.435 C2.026,15.811 2.668,16.016 3.021,16.016 C3.375,16.016 3.959,15.811 3.959,15.435 L3.959,14.028 C3.968,14.028 3.976,14.031 3.976,14.031 L13.986,14.031 C13.999,14.031 14.009,14.028 14.022,14.027 L14.022,15.435 C14.022,15.811 14.657,16.037 15.001,16.037 C15.348,16.037 15.959,15.811 15.959,15.435 L15.986,1.36 C15.985,0.63 15.396,0.037 14.667,0.037 L14.667,0.037 z M12.979,0.958 L14.02,0.958 L14.02,3 L12.979,3 L12.979,0.958 L12.979,0.958 z M10.958,0.958 L11.958,0.958 L11.958,2.958 L10.958,2.958 L10.958,0.958 L10.958,0.958 z M8.973,0.958 L10.021,0.958 L10.021,2.958 L8.973,2.958 L8.973,0.958 L8.973,0.958 z M15.021,10.021 L2.98,10.021 L2.98,8.98 L15.021,8.98 L15.021,10.021 L15.021,10.021 z M3.958,8 L3.958,6 L4.958,6 L4.958,8 L3.958,8 L3.958,8 z M5.972,7.993 L5.972,5.993 L6.972,5.993 L6.972,7.993 L5.972,7.993 L5.972,7.993 z M7.961,8 L7.961,5.993 L8.961,5.993 L8.961,8 L7.961,8 L7.961,8 z M15.021,5 L2.98,5 L2.98,3.979 L15.021,3.979 L15.021,5 L15.021,5 z" fill="#E0E0E0"/>
  </g>
</svg>
