<?xml version="1.0" encoding="UTF-8"?>
<!DOCTYPE svg PUBLIC "-//W3C//DTD SVG 1.1//EN" "http://www.w3.org/Graphics/SVG/1.1/DTD/svg11.dtd">
<svg version="1.1" xmlns="http://www.w3.org/2000/svg" xmlns:xlink="http://www.w3.org/1999/xlink" x="0" y="0" width="1024" height="1024" viewBox="0, 0, 1024, 1024">
  <g id="Background">
    <rect x="0" y="0" width="1024" height="1024" fill="#000000" fill-opacity="0"/>
  </g>
  <g id="Layer_1">
    <path d="M512,42.5 C771.298,42.5 981.5,252.702 981.5,512 C981.5,771.298 771.298,981.5 512,981.5 C252.702,981.5 42.5,771.298 42.5,512 C42.5,252.702 252.702,42.5 512,42.5 z M512,74 C270.099,74 74,270.099 74,512 C74,753.901 270.099,950 512,950 C753.901,950 950,753.901 950,512 C950,270.099 753.901,74 512,74 z" fill="#E0E0E0"/>
    <g>
      <path d="M507.015,350.438 C376.492,288.28 334.626,332.716 251.492,383.957 L251.492,702.666 C334.583,651.082 398.496,618.376 507.015,674.798 L507.015,350.438 L507.015,350.438 z" fill="#E0E0E0"/>
      <path d="M517.498,351.106 L517.498,676.065 C660.992,617.803 690.23,652.563 772.508,703.933 L772.508,384.668 C690.23,333.555 663.903,287.579 517.498,351.106 L517.498,351.106 z" fill="#E0E0E0"/>
    </g>
  </g>
</svg>
