<?xml version="1.0" encoding="UTF-8"?>
<!DOCTYPE svg PUBLIC "-//W3C//DTD SVG 1.1//EN" "http://www.w3.org/Graphics/SVG/1.1/DTD/svg11.dtd">
<svg version="1.1" xmlns="http://www.w3.org/2000/svg" xmlns:xlink="http://www.w3.org/1999/xlink" x="0" y="0" width="17" height="17" viewBox="0, 0, 17, 17">
  <g id="Background">
    <rect x="0" y="0" width="17" height="17" fill="#000000" fill-opacity="0"/>
  </g>
  <g id="Background"/>
  <g id="Layer_1">
    <path d="M8.021,1.097 C3.625,1.097 0.063,4.655 0.063,9.04 C0.063,13.428 3.625,16.985 8.021,16.985 C12.416,16.985 15.979,13.427 15.979,9.04 C15.979,4.654 12.415,1.097 8.021,1.097 L8.021,1.097 z M10.272,10 L5.728,10 C4.772,10 4,10.051 4,9 C4,7.947 4.772,8 5.728,8 L10.272,8 C11.228,8 12,7.946 12,9 C12,10.051 11.228,10 10.272,10 L10.272,10 z" fill="#5e5e5e"/>
  </g>
</svg>
