<?xml version="1.0" encoding="UTF-8"?>
<!DOCTYPE svg PUBLIC "-//W3C//DTD SVG 1.1//EN" "http://www.w3.org/Graphics/SVG/1.1/DTD/svg11.dtd">
<svg version="1.1" xmlns="http://www.w3.org/2000/svg" xmlns:xlink="http://www.w3.org/1999/xlink" x="0" y="0" width="24" height="24" viewBox="0, 0, 24, 24">
  <g id="Background">
    <rect x="0" y="0" width="24" height="24" fill="#000000" fill-opacity="0"/>
  </g>
  <g id="Bounding_Boxes"/>
  <g id="Sharp">
    <path d="M19.44,12.99 L19.43,13.01 C19.47,12.68 19.51,12.34 19.51,12 C19.51,11.66 19.48,11.34 19.44,11.01 L19.45,11.03 L21.89,9.11 L19.46,4.89 L16.59,6.05 L16.6,6.06 C16.08,5.66 15.51,5.32 14.89,5.06 L14.9,5.06 L14.44,2 L9.57,2 L9.13,5.07 L9.14,5.07 C8.52,5.33 7.95,5.67 7.43,6.07 L7.44,6.06 L4.56,4.89 L2.12,9.11 L4.56,11.03 L4.57,11.01 C4.53,11.34 4.5,11.66 4.5,12 C4.5,12.34 4.53,12.68 4.58,13.01 L4.57,12.99 L2.47,14.64 C2.28,14.79 2.14,14.9 2.14,14.9 L4.57,19.1 L7.45,17.95 L7.43,17.91 C7.96,18.32 8.53,18.66 9.16,18.92 L9.13,18.92 L9.58,22 L14.43,22 C14.43,22 14.46,21.82 14.49,21.58 L14.87,18.93 L14.86,18.93 C15.48,18.67 16.06,18.33 16.59,17.92 L16.57,17.96 L19.45,19.11 L21.88,14.91 C21.88,14.91 21.74,14.79 21.55,14.65 L19.44,12.99 z M12,15.5 C10.07,15.5 8.5,13.93 8.5,12 C8.5,10.07 10.07,8.5 12,8.5 C13.93,8.5 15.5,10.07 15.5,12 C15.5,13.93 13.93,15.5 12,15.5 z" fill="#E0E0E0"/>
  </g>
</svg>
