<?xml version="1.0" encoding="UTF-8"?>
<!DOCTYPE svg PUBLIC "-//W3C//DTD SVG 1.1//EN" "http://www.w3.org/Graphics/SVG/1.1/DTD/svg11.dtd">
<svg version="1.1" xmlns="http://www.w3.org/2000/svg" xmlns:xlink="http://www.w3.org/1999/xlink" x="0" y="0" width="16" height="16" viewBox="0, 0, 16, 16">
  <g id="Background">
    <rect x="0" y="0" width="16" height="16" fill="#000000" fill-opacity="0"/>
  </g>
  <g id="Layer_1">
    <g>
      <path d="M9.494,4.011 C9.223,4.011 9.005,3.791 9.005,3.519 C9.005,2.133 7.881,1.005 6.502,1.005 C5.123,1.005 4,2.133 4,3.519 C4,3.791 3.781,4.011 3.51,4.011 C3.24,4.011 3.021,3.791 3.021,3.519 C3.021,1.59 4.583,0.021 6.502,0.021 C8.422,0.021 9.984,1.59 9.984,3.519 C9.984,3.791 9.766,4.011 9.494,4.011 L9.494,4.011 z" fill="#E0E0E0"/>
      <path d="M12.492,4.011 C12.222,4.011 12.004,3.791 12.004,3.519 C12.004,2.133 10.885,1.005 9.512,1.005 C9.242,1.005 9.024,0.785 9.024,0.513 C9.024,0.241 9.243,0.021 9.512,0.021 C11.424,0.021 12.981,1.59 12.981,3.519 C12.98,3.791 12.762,4.011 12.492,4.011 L12.492,4.011 z" fill="#E0E0E0"/>
      <g>
        <path d="M13.042,3.1 L13.042,16 L14.371,16 C14.698,16 14.965,15.746 14.965,15.434 L14.965,3.626 C14.965,3.312 14.698,3.061 14.371,3.061 L13.042,3.1 z" fill="#E0E0E0"/>
        <path d="M1.645,3.061 C1.315,3.061 1.044,3.313 1.044,3.626 L1.044,15.434 C1.044,15.746 1.315,16 1.645,16 L11.951,16 C11.951,16 11.957,3.079 11.957,3.061 L1.645,3.061 L1.645,3.061 z" fill="#E0E0E0"/>
      </g>
    </g>
  </g>
</svg>
