<?xml version="1.0" encoding="UTF-8"?>
<!DOCTYPE svg PUBLIC "-//W3C//DTD SVG 1.1//EN" "http://www.w3.org/Graphics/SVG/1.1/DTD/svg11.dtd">
<svg version="1.1" xmlns="http://www.w3.org/2000/svg" xmlns:xlink="http://www.w3.org/1999/xlink" x="0" y="0" width="17" height="16" viewBox="0, 0, 17, 16">
  <g id="Background">
    <rect x="0" y="0" width="17" height="16" fill="#000000" fill-opacity="0"/>
  </g>
  <g id="Layer_1">
    <path d="M14.664,0 L1.336,0 C0.598,0 0.002,0.598 0.002,1.335 L0.002,14.664 C0.002,15.401 0.598,16 1.336,16 L14.664,16 C15.402,16 16,15.401 16,14.664 L16,1.335 C16,0.598 15.402,0 14.664,0 L14.664,0 z M9.023,9.016 L9.023,11.565 C9.023,12.197 6.998,12.197 6.998,11.565 L6.998,9.016 L4.421,9.016 C3.788,9.016 3.789,7.006 4.421,7.006 L6.998,7.006 L6.998,4.461 C6.998,3.828 9.023,3.828 9.023,4.461 L9.023,7.006 L11.579,7.006 C12.212,7.006 12.212,9.016 11.579,9.016 L9.023,9.016 z" fill="#E0E0E0"/>
  </g>
</svg>
