<?xml version="1.0" encoding="UTF-8"?>
<!DOCTYPE svg PUBLIC "-//W3C//DTD SVG 1.1//EN" "http://www.w3.org/Graphics/SVG/1.1/DTD/svg11.dtd">
<svg version="1.1" xmlns="http://www.w3.org/2000/svg" xmlns:xlink="http://www.w3.org/1999/xlink" x="0" y="0" width="17" height="16" viewBox="0, 0, 17, 16">
  <g id="Background">
    <rect x="0" y="0" width="17" height="16" fill="#000000" fill-opacity="0"/>
  </g>
  <g id="Layer_1">
    <g>
      <path d="M9.021,0.114 C4.627,0.114 1.052,3.668 1.052,8.036 C1.052,12.404 4.627,15.958 9.021,15.958 C13.416,15.958 16.99,12.404 16.99,8.036 C16.99,3.668 13.415,0.114 9.021,0.114 L9.021,0.114 z M9.013,14.07 C5.684,14.07 2.973,11.346 2.973,7.999 C2.973,4.652 5.684,1.928 9.013,1.928 C12.342,1.928 15.052,4.653 15.052,7.999 C15.052,11.347 12.342,14.07 9.013,14.07 L9.013,14.07 z" fill="#E0E0E0"/>
      <path d="M8.996,11.969 C8.342,11.969 8.037,11.532 8.037,11.238 L8.037,8.983 L5.813,8.983 C5.548,8.983 5.031,8.685 5.031,7.997 C5.031,7.343 5.469,7.038 5.763,7.038 L8.034,7.038 L8.034,4.801 C8.034,4.537 8.332,4.019 9.02,4.019 C9.674,4.019 9.979,4.457 9.979,4.751 L9.979,7.036 L12.215,7.036 C12.48,7.036 12.998,7.335 12.998,8.023 C12.998,8.676 12.56,8.981 12.266,8.981 L9.981,8.981 L9.981,11.187 C9.982,11.45 9.685,11.969 8.996,11.969 L8.996,11.969 z" fill="#E0E0E0"/>
    </g>
  </g>
</svg>
